<svg fill="#000000" xmlns="http://www.w3.org/2000/svg"  viewBox="0 0 16 16" width="32px" height="32px"><path fill="none" stroke="#000000" stroke-linecap="round" stroke-linejoin="round" stroke-miterlimit="10" d="M7.135 14.349L.651 7.865c-.201-.201-.201-.528 0-.729l6.484-6.485c.201-.201.528-.201.729 0l6.485 6.485c.201.201.201.528 0 .729l-6.484 6.485C7.663 14.55 7.337 14.55 7.135 14.349zM7.5 10.75L7.5 4.875M11 8L5.5 2.5"/><path d="M7.5 9.75A1.125 1.125 0 1 0 7.5 12 1.125 1.125 0 1 0 7.5 9.75zM7.5 3.375A1.125 1.125 0 1 0 7.5 5.625 1.125 1.125 0 1 0 7.5 3.375zM10.625 6.5A1.125 1.125 0 1 0 10.625 8.75 1.125 1.125 0 1 0 10.625 6.5z"/></svg>